# 3ds Max Wavefront OBJ Exporter v0.99 - (c)2007 guruware
# File Created: 05.05.2024 00:12:41

mtllib llantaAtDerCJ.mtl

#
# object llantaAtDer
#

v  -0.8370 1.0772 1.8052
v  -0.8370 -1.0312 1.8052
v  -0.8389 0.0230 2.0876
v  -0.8318 -1.8030 1.0334
v  -0.8318 1.8490 1.0334
v  -0.8246 -2.0855 -0.0208
v  -0.8246 2.1314 -0.0208
v  -0.8175 -1.8030 -1.0750
v  -0.8175 1.8490 -1.0750
v  -0.8123 -1.0312 -1.8467
v  -0.8123 1.0772 -1.8467
v  -0.8104 0.0230 -2.1292
v  0.8248 0.0230 2.0989
v  0.8267 -1.0312 1.8164
v  0.8320 -1.8030 1.0447
v  0.8391 -2.0855 -0.0095
v  0.8462 -1.8030 -1.0637
v  0.8515 -1.0312 -1.8354
v  0.8534 0.0230 -2.1179
v  0.8515 1.0772 -1.8354
v  0.8462 1.8490 -1.0637
v  0.8391 2.1314 -0.0095
v  0.8320 1.8490 1.0447
v  0.8267 1.0772 1.8164
v  0.9122 -0.8579 1.5169
v  0.9106 0.0230 1.7529
v  0.9165 -1.5028 0.8720
v  0.9225 -1.7389 -0.0089
v  0.9285 -1.5028 -0.8898
v  0.9328 -0.8579 -1.5347
v  0.9344 0.0230 -1.7707
v  0.9328 0.9039 -1.5347
v  0.9285 1.5488 -0.8898
v  0.9225 1.7849 -0.0089
v  0.9165 1.5488 0.8720
v  0.9122 0.9039 1.5169
v  0.7981 -0.5601 1.0003
v  0.7971 0.0230 1.1565
v  0.8295 0.0230 1.4058
v  0.8308 -0.6846 1.2161
v  0.8010 -0.9870 0.5734
v  0.8343 -1.2027 0.6981
v  0.8050 -1.1433 -0.0097
v  0.8391 -1.3923 -0.0095
v  0.8089 -0.9870 -0.5928
v  0.8439 -1.2027 -0.7171
v  0.8118 -0.5601 -1.0197
v  0.8474 -0.6846 -1.2351
v  0.8129 0.0230 -1.1759
v  0.8487 0.0230 -1.4247
v  0.8118 0.6061 -1.0197
v  0.8474 0.7306 -1.2351
v  0.8089 1.0330 -0.5928
v  0.8439 1.2486 -0.7171
v  0.8050 1.1892 -0.0097
v  0.8391 1.4383 -0.0095
v  0.8010 1.0330 0.5734
v  0.8343 1.2486 0.6981
v  0.7981 0.6061 1.0003
v  0.8308 0.7306 1.2161
# 60 vertices

vn -1.0000 0.0000 -0.0068
vn -0.0068 0.0000 1.0000
vn -0.0059 -0.5000 0.8660
vn -0.0034 -0.8660 0.5000
vn 0.0000 -1.0000 -0.0000
vn 0.0034 -0.8660 -0.5000
vn 0.0059 -0.5000 -0.8660
vn 0.0068 0.0000 -1.0000
vn 0.0059 0.5000 -0.8660
vn 0.0034 0.8660 -0.5000
vn 0.0000 1.0000 -0.0000
vn -0.0034 0.8660 0.5000
vn -0.0059 0.5000 0.8660
vn 0.9990 -0.0195 0.0405
vn 0.9990 0.0000 0.0457
vn 0.9706 0.0000 0.2406
vn 0.9708 -0.1170 0.2092
vn 0.9991 -0.0337 0.0263
vn 0.9714 -0.2026 0.1236
vn 0.9992 -0.0389 0.0068
vn 0.9722 -0.2340 0.0066
vn 0.9994 -0.0337 -0.0127
vn 0.9730 -0.2026 -0.1104
vn 0.9994 -0.0195 -0.0269
vn 0.9736 -0.1170 -0.1960
vn 0.9995 0.0000 -0.0321
vn 0.9738 0.0000 -0.2274
vn 0.9994 0.0195 -0.0269
vn 0.9736 0.1170 -0.1960
vn 0.9994 0.0337 -0.0127
vn 0.9730 0.2026 -0.1104
vn 0.9992 0.0389 0.0068
vn 0.9722 0.2340 0.0066
vn 0.9991 0.0337 0.0263
vn 0.9714 0.2026 0.1236
vn 0.9990 0.0195 0.0405
vn 0.9708 0.1170 0.2092
vn 0.9973 0.0397 -0.0619
vn 0.9974 0.0000 -0.0725
vn 0.9825 0.0000 -0.1864
vn 0.9823 0.0966 -0.1606
vn 0.9971 0.0687 -0.0329
vn 0.9818 0.1673 -0.0899
vn 0.9968 0.0793 0.0068
vn 0.9812 0.1931 0.0066
vn 0.9966 0.0687 0.0465
vn 0.9805 0.1673 0.1032
vn 0.9964 0.0397 0.0755
vn 0.9800 0.0966 0.1739
vn 0.9963 0.0000 0.0861
vn 0.9799 0.0000 0.1997
vn 0.9964 -0.0397 0.0755
vn 0.9800 -0.0966 0.1739
vn 0.9966 -0.0687 0.0465
vn 0.9805 -0.1673 0.1032
vn 0.9968 -0.0793 0.0068
vn 0.9812 -0.1931 0.0066
vn 0.9971 -0.0687 -0.0329
vn 0.9818 -0.1673 -0.0899
vn 0.9973 -0.0397 -0.0619
vn 0.9823 -0.0966 -0.1606
# 61 vertex normals

vt 0.1225 0.0295 0.0000
vt 0.1669 0.0414 0.0000
vt 0.1463 0.0295 0.0000
vt 0.1788 0.0620 0.0000
vt 0.1019 0.0414 0.0000
vt 0.1788 0.0858 0.0000
vt 0.0900 0.0620 0.0000
vt 0.1669 0.1064 0.0000
vt 0.0900 0.0858 0.0000
vt 0.1463 0.1183 0.0000
vt 0.1019 0.1064 0.0000
vt 0.1225 0.1183 0.0000
vt 0.7049 0.2817 0.0000
vt 0.6686 0.2817 0.0000
vt 0.6686 0.3055 0.0000
vt 0.7049 0.3055 0.0000
vt 0.6686 0.3293 0.0000
vt 0.7049 0.3293 0.0000
vt 0.7049 0.0437 0.0000
vt 0.6686 0.0437 0.0000
vt 0.6686 0.0675 0.0000
vt 0.7049 0.0675 0.0000
vt 0.6686 0.0913 0.0000
vt 0.7049 0.0913 0.0000
vt 0.6686 0.1151 0.0000
vt 0.7049 0.1151 0.0000
vt 0.6686 0.1389 0.0000
vt 0.7049 0.1389 0.0000
vt 0.6686 0.1627 0.0000
vt 0.7049 0.1627 0.0000
vt 0.6686 0.1865 0.0000
vt 0.7049 0.1865 0.0000
vt 0.6686 0.2103 0.0000
vt 0.7049 0.2103 0.0000
vt 0.6686 0.2341 0.0000
vt 0.7049 0.2341 0.0000
vt 0.6686 0.2579 0.0000
vt 0.7049 0.2579 0.0000
vt 0.0176 0.0467 0.0000
vt 0.0349 0.0367 0.0000
vt 0.0329 0.0294 0.0000
vt 0.0123 0.0413 0.0000
vt 0.0077 0.0639 0.0000
vt 0.0004 0.0620 0.0000
vt 0.0077 0.0838 0.0000
vt 0.0004 0.0858 0.0000
vt 0.0176 0.1011 0.0000
vt 0.0123 0.1064 0.0000
vt 0.0349 0.1110 0.0000
vt 0.0329 0.1183 0.0000
vt 0.0548 0.1110 0.0000
vt 0.0567 0.1183 0.0000
vt 0.0720 0.1011 0.0000
vt 0.0774 0.1064 0.0000
vt 0.0820 0.0838 0.0000
vt 0.0893 0.0858 0.0000
vt 0.0820 0.0639 0.0000
vt 0.0893 0.0620 0.0000
vt 0.0720 0.0467 0.0000
vt 0.0773 0.0413 0.0000
vt 0.0548 0.0367 0.0000
vt 0.0567 0.0294 0.0000
vt 0.0268 0.0559 0.0000
vt 0.0382 0.0493 0.0000
vt 0.0368 0.0440 0.0000
vt 0.0230 0.0520 0.0000
vt 0.0203 0.0673 0.0000
vt 0.0150 0.0659 0.0000
vt 0.0203 0.0804 0.0000
vt 0.0150 0.0819 0.0000
vt 0.0268 0.0918 0.0000
vt 0.0230 0.0957 0.0000
vt 0.0382 0.0984 0.0000
vt 0.0368 0.1037 0.0000
vt 0.0514 0.0984 0.0000
vt 0.0528 0.1037 0.0000
vt 0.0628 0.0918 0.0000
vt 0.0667 0.0957 0.0000
vt 0.0694 0.0804 0.0000
vt 0.0746 0.0819 0.0000
vt 0.0694 0.0673 0.0000
vt 0.0747 0.0659 0.0000
vt 0.0628 0.0559 0.0000
vt 0.0667 0.0520 0.0000
vt 0.0514 0.0493 0.0000
vt 0.0528 0.0440 0.0000
# 86 texture coords

o llantaAtDer
g llantaAtDer
usemtl Material__226
s off
f 1/1/1 2/2/1 3/3/1 
f 2/2/1 1/1/1 4/4/1 
f 4/4/1 1/1/1 5/5/1 
f 4/4/1 5/5/1 6/6/1 
f 6/6/1 5/5/1 7/7/1 
f 6/6/1 7/7/1 8/8/1 
f 8/8/1 7/7/1 9/9/1 
f 8/8/1 9/9/1 10/10/1 
f 10/10/1 9/9/1 11/11/1 
f 10/10/1 11/11/1 12/12/1 
s 1
f 13/13/2 3/14/2 2/15/3 
f 13/13/2 2/15/3 14/16/3 
f 14/16/3 2/15/3 4/17/4 
f 14/16/3 4/17/4 15/18/4 
f 15/19/4 4/20/4 6/21/5 
f 15/19/4 6/21/5 16/22/5 
f 16/22/5 6/21/5 8/23/6 
f 16/22/5 8/23/6 17/24/6 
f 17/24/6 8/23/6 10/25/7 
f 17/24/6 10/25/7 18/26/7 
f 18/26/7 10/25/7 12/27/8 
f 18/26/7 12/27/8 19/28/8 
f 19/28/8 12/27/8 11/29/9 
f 19/28/8 11/29/9 20/30/9 
f 20/30/9 11/29/9 9/31/10 
f 20/30/9 9/31/10 21/32/10 
f 21/32/10 9/31/10 7/33/11 
f 21/32/10 7/33/11 22/34/11 
f 22/34/11 7/33/11 5/35/12 
f 22/34/11 5/35/12 23/36/12 
f 23/36/12 5/35/12 1/37/13 
f 23/36/12 1/37/13 24/38/13 
f 24/38/13 1/37/13 3/14/2 
f 24/38/13 3/14/2 13/13/2 
f 25/39/14 26/40/15 13/41/16 
f 25/39/14 13/41/16 14/42/17 
f 27/43/18 25/39/14 14/42/17 
f 27/43/18 14/42/17 15/44/19 
f 28/45/20 27/43/18 15/44/19 
f 28/45/20 15/44/19 16/46/21 
f 29/47/22 28/45/20 16/46/21 
f 29/47/22 16/46/21 17/48/23 
f 30/49/24 29/47/22 17/48/23 
f 30/49/24 17/48/23 18/50/25 
f 31/51/26 30/49/24 18/50/25 
f 31/51/26 18/50/25 19/52/27 
f 32/53/28 31/51/26 19/52/27 
f 32/53/28 19/52/27 20/54/29 
f 33/55/30 32/53/28 20/54/29 
f 33/55/30 20/54/29 21/56/31 
f 34/57/32 33/55/30 21/56/31 
f 34/57/32 21/56/31 22/58/33 
f 35/59/34 34/57/32 22/58/33 
f 35/59/34 22/58/33 23/60/35 
f 36/61/36 35/59/34 23/60/35 
f 36/61/36 23/60/35 24/62/37 
f 26/40/15 36/61/36 24/62/37 
f 26/40/15 24/62/37 13/41/16 
f 37/63/38 38/64/39 39/65/40 
f 37/63/38 39/65/40 40/66/41 
f 41/67/42 37/63/38 40/66/41 
f 41/67/42 40/66/41 42/68/43 
f 43/69/44 41/67/42 42/68/43 
f 43/69/44 42/68/43 44/70/45 
f 45/71/46 43/69/44 44/70/45 
f 45/71/46 44/70/45 46/72/47 
f 47/73/48 45/71/46 46/72/47 
f 47/73/48 46/72/47 48/74/49 
f 49/75/50 47/73/48 48/74/49 
f 49/75/50 48/74/49 50/76/51 
f 51/77/52 49/75/50 50/76/51 
f 51/77/52 50/76/51 52/78/53 
f 53/79/54 51/77/52 52/78/53 
f 53/79/54 52/78/53 54/80/55 
f 55/81/56 53/79/54 54/80/55 
f 55/81/56 54/80/55 56/82/57 
f 57/83/58 55/81/56 56/82/57 
f 57/83/58 56/82/57 58/84/59 
f 59/85/60 57/83/58 58/84/59 
f 59/85/60 58/84/59 60/86/61 
f 38/64/39 59/85/60 60/86/61 
f 38/64/39 60/86/61 39/65/40 
f 39/65/40 60/86/61 36/61/36 
f 39/65/40 36/61/36 26/40/15 
f 60/86/61 58/84/59 35/59/34 
f 60/86/61 35/59/34 36/61/36 
f 58/84/59 56/82/57 34/57/32 
f 58/84/59 34/57/32 35/59/34 
f 56/82/57 54/80/55 33/55/30 
f 56/82/57 33/55/30 34/57/32 
f 54/80/55 52/78/53 32/53/28 
f 54/80/55 32/53/28 33/55/30 
f 52/78/53 50/76/51 31/51/26 
f 52/78/53 31/51/26 32/53/28 
f 50/76/51 48/74/49 30/49/24 
f 50/76/51 30/49/24 31/51/26 
f 48/74/49 46/72/47 29/47/22 
f 48/74/49 29/47/22 30/49/24 
f 46/72/47 44/70/45 28/45/20 
f 46/72/47 28/45/20 29/47/22 
f 44/70/45 42/68/43 27/43/18 
f 44/70/45 27/43/18 28/45/20 
f 42/68/43 40/66/41 25/39/14 
f 42/68/43 25/39/14 27/43/18 
f 40/66/41 39/65/40 26/40/15 
f 40/66/41 26/40/15 25/39/14 
f 37/63/38 59/85/60 38/64/39 
f 59/85/60 37/63/38 41/67/42 
f 59/85/60 41/67/42 57/83/58 
f 57/83/58 41/67/42 43/69/44 
f 57/83/58 43/69/44 55/81/56 
f 55/81/56 43/69/44 45/71/46 
f 55/81/56 45/71/46 53/79/54 
f 53/79/54 45/71/46 47/73/48 
f 53/79/54 47/73/48 51/77/52 
f 51/77/52 47/73/48 49/75/50 
# 116 faces

