# 3ds Max Wavefront OBJ Exporter v0.99 - (c)2007 guruware
# File Created: 28.04.2024 01:09:52

mtllib paredes.mtl

#
# object paredes
#

v  891.9013 58.0182 -369.5601
v  891.9013 -0.4818 -369.5601
v  1097.3401 -0.4818 -369.5601
v  1097.3401 58.0182 -369.5601
v  891.9013 58.0182 -370.8101
v  1097.3401 58.0182 -370.8101
v  1097.3401 -0.4818 -370.8101
v  891.9013 -0.4818 -370.8101
v  893.4258 57.9457 -294.5651
v  893.4258 1.3957 -294.5651
v  893.4258 1.3957 -369.5651
v  893.4258 57.9457 -369.5651
v  891.9258 57.9457 -294.5651
v  891.9258 57.9457 -369.5651
v  891.9258 1.3957 -369.5651
v  891.9258 1.3957 -294.5651
v  1097.2366 58.0190 -294.5268
v  1097.2366 -0.4810 -294.5268
v  1097.2366 -0.4810 -369.5268
v  1097.2366 58.0190 -369.5268
v  1095.7366 58.0190 -294.5268
v  1095.7366 58.0190 -369.5268
v  1095.7366 -0.4810 -369.5268
v  1095.7366 -0.4810 -294.5268
v  1097.2366 58.0190 -224.1855
v  1097.2366 -0.4810 -224.1855
v  1097.2366 -0.4810 -294.6056
v  1097.2366 58.0190 -294.6056
v  1095.7366 58.0190 -224.1855
v  1095.7366 58.0190 -294.6056
v  1095.7366 -0.4810 -294.6056
v  1095.7366 -0.4810 -224.1855
v  1024.6729 58.0857 -224.1976
v  1024.6729 1.5357 -224.1976
v  1097.3329 1.5357 -224.1976
v  1097.3329 58.0857 -224.1976
v  1024.6729 58.0857 -225.4476
v  1097.3329 58.0857 -225.4476
v  1097.3329 1.5357 -225.4476
v  1024.6729 1.5357 -225.4476
v  891.9000 57.9831 -294.5651
v  891.9000 57.9831 -369.5651
v  1097.3389 57.9831 -369.5651
v  1097.3389 57.9831 -294.5651
v  891.9000 59.9331 -294.5651
v  1097.3389 59.9331 -294.5651
v  1097.3389 59.9331 -369.5651
v  891.9000 59.9331 -369.5651
v  1024.6743 57.9831 -224.1691
v  1024.6743 57.9831 -294.5881
v  1097.3331 57.9831 -294.5881
v  1097.3331 57.9831 -224.1691
v  1024.6743 59.9331 -224.1691
v  1097.3331 59.9331 -224.1691
v  1097.3331 59.9331 -294.5881
v  1024.6743 59.9331 -294.5881
# 56 vertices

vn 0.0000 0.0000 1.0000
vn 0.0000 0.0000 -1.0000
vn 0.0000 1.0000 -0.0000
vn 1.0000 0.0000 -0.0000
vn 0.0000 -1.0000 -0.0000
vn -1.0000 0.0000 -0.0000
# 6 vertex normals

vt 1.0000 0.0000 0.0000
vt 1.0000 1.0000 0.0000
vt 0.0000 1.0000 0.0000
vt 0.0000 0.0000 0.0000
# 4 texture coords

o paredes
g paredes
usemtl Material__36
s 2
f 1/1/1 2/2/1 3/3/1 
f 3/3/1 4/4/1 1/1/1 
s 4
f 5/4/2 6/1/2 7/2/2 
f 7/2/2 8/3/2 5/4/2 
s 8
f 1/4/3 4/1/3 6/2/3 
f 6/2/3 5/3/3 1/4/3 
s 16
f 4/4/4 3/1/4 7/2/4 
f 7/2/4 6/3/4 4/4/4 
s 32
f 3/4/5 2/1/5 8/2/5 
f 8/2/5 7/3/5 3/4/5 
s 64
f 2/4/6 1/1/6 5/2/6 
f 5/2/6 8/3/6 2/4/6 
s 2
f 9/1/4 10/2/4 11/3/4 
f 11/3/4 12/4/4 9/1/4 
s 4
f 13/4/6 14/1/6 15/2/6 
f 15/2/6 16/3/6 13/4/6 
s 8
f 9/4/3 12/1/3 14/2/3 
f 14/2/3 13/3/3 9/4/3 
s 16
f 12/4/2 11/1/2 15/2/2 
f 15/2/2 14/3/2 12/4/2 
s 32
f 11/4/5 10/1/5 16/2/5 
f 16/2/5 15/3/5 11/4/5 
s 64
f 10/4/1 9/1/1 13/2/1 
f 13/2/1 16/3/1 10/4/1 
s 2
f 17/1/4 18/2/4 19/3/4 
f 19/3/4 20/4/4 17/1/4 
s 4
f 21/4/6 22/1/6 23/2/6 
f 23/2/6 24/3/6 21/4/6 
s 8
f 17/4/3 20/1/3 22/2/3 
f 22/2/3 21/3/3 17/4/3 
s 16
f 20/4/2 19/1/2 23/2/2 
f 23/2/2 22/3/2 20/4/2 
s 32
f 19/4/5 18/1/5 24/2/5 
f 24/2/5 23/3/5 19/4/5 
s 64
f 18/4/1 17/1/1 21/2/1 
f 21/2/1 24/3/1 18/4/1 
s 2
f 25/1/4 26/2/4 27/3/4 
f 27/3/4 28/4/4 25/1/4 
s 4
f 29/4/6 30/1/6 31/2/6 
f 31/2/6 32/3/6 29/4/6 
s 8
f 25/4/3 28/1/3 30/2/3 
f 30/2/3 29/3/3 25/4/3 
s 16
f 28/4/2 27/1/2 31/2/2 
f 31/2/2 30/3/2 28/4/2 
s 32
f 27/4/5 26/1/5 32/2/5 
f 32/2/5 31/3/5 27/4/5 
s 64
f 26/4/1 25/1/1 29/2/1 
f 29/2/1 32/3/1 26/4/1 
s 2
f 33/1/1 34/2/1 35/3/1 
f 35/3/1 36/4/1 33/1/1 
s 4
f 37/4/2 38/1/2 39/2/2 
f 39/2/2 40/3/2 37/4/2 
s 8
f 33/4/3 36/1/3 38/2/3 
f 38/2/3 37/3/3 33/4/3 
s 16
f 36/4/4 35/1/4 39/2/4 
f 39/2/4 38/3/4 36/4/4 
s 32
f 35/4/5 34/1/5 40/2/5 
f 40/2/5 39/3/5 35/4/5 
s 64
f 34/4/6 33/1/6 37/2/6 
f 37/2/6 40/3/6 34/4/6 
usemtl Material__1460
s 2
f 41/1/5 42/2/5 43/3/5 
f 43/3/5 44/4/5 41/1/5 
s 4
f 45/4/3 46/1/3 47/2/3 
f 47/2/3 48/3/3 45/4/3 
s 8
f 41/4/1 44/1/1 46/2/1 
f 46/2/1 45/3/1 41/4/1 
s 16
f 44/4/4 43/1/4 47/2/4 
f 47/2/4 46/3/4 44/4/4 
s 32
f 43/4/2 42/1/2 48/2/2 
f 48/2/2 47/3/2 43/4/2 
s 64
f 42/4/6 41/1/6 45/2/6 
f 45/2/6 48/3/6 42/4/6 
s 2
f 49/1/5 50/2/5 51/3/5 
f 51/3/5 52/4/5 49/1/5 
s 4
f 53/4/3 54/1/3 55/2/3 
f 55/2/3 56/3/3 53/4/3 
s 8
f 49/4/1 52/1/1 54/2/1 
f 54/2/1 53/3/1 49/4/1 
s 16
f 52/4/4 51/1/4 55/2/4 
f 55/2/4 54/3/4 52/4/4 
s 32
f 51/4/2 50/1/2 56/2/2 
f 56/2/2 55/3/2 51/4/2 
s 64
f 50/4/6 49/1/6 53/2/6 
f 53/2/6 56/3/6 50/4/6 
# 84 faces

