# 3ds Max Wavefront OBJ Exporter v0.99 - (c)2007 guruware
# File Created: 28.04.2024 01:18:13

mtllib vestidor.mtl

#
# object vestidor
#

v  1084.3998 26.5313 -235.4157
v  1084.3998 2.6755 -235.4157
v  1084.3998 2.6755 -226.7207
v  1084.3998 26.5313 -226.7207
v  1084.7343 27.7575 -225.4944
v  1084.5114 27.7575 -225.4944
v  1084.5114 1.4495 -225.4944
v  1084.7343 1.4495 -225.4944
v  1084.7343 27.7575 -236.6420
v  1084.5114 27.7575 -236.6420
v  1084.7343 1.4495 -236.6420
v  1084.5114 1.4495 -236.6420
v  1084.3998 26.8658 -226.3862
v  1084.3998 2.3413 -226.3862
v  1084.3998 26.8658 -235.7500
v  1084.3998 2.3413 -235.7500
v  1084.4556 26.8658 -226.3862
v  1084.4556 2.3413 -226.3862
v  1084.4556 26.8658 -235.7500
v  1084.4556 2.3413 -235.7500
v  1084.4000 26.5313 -246.5647
v  1084.4000 2.6755 -246.5647
v  1084.4000 2.6755 -237.8697
v  1084.4000 26.5313 -237.8697
v  1084.7346 27.7575 -236.6435
v  1084.5116 27.7575 -236.6435
v  1084.5116 1.4495 -236.6435
v  1084.7346 1.4495 -236.6435
v  1084.7346 27.7575 -247.7910
v  1084.5116 27.7575 -247.7910
v  1084.7346 1.4495 -247.7910
v  1084.5116 1.4495 -247.7910
v  1084.4000 26.8658 -237.5352
v  1084.4000 2.3413 -237.5352
v  1084.4000 26.8658 -246.8992
v  1084.4000 2.3413 -246.8992
v  1084.4558 26.8658 -237.5352
v  1084.4558 2.3413 -237.5352
v  1084.4558 26.8658 -246.8992
v  1084.4558 2.3413 -246.8992
v  1084.3998 26.5313 -257.6784
v  1084.3998 2.6755 -257.6784
v  1084.3998 2.6755 -248.9834
v  1084.3998 26.5313 -248.9834
v  1084.7343 27.7575 -247.7572
v  1084.5114 27.7575 -247.7572
v  1084.5114 1.4495 -247.7572
v  1084.7343 1.4495 -247.7572
v  1084.7343 27.7575 -258.9047
v  1084.5114 27.7575 -258.9047
v  1084.7343 1.4495 -258.9047
v  1084.5114 1.4495 -258.9047
v  1084.3998 26.8658 -248.6490
v  1084.3998 2.3413 -248.6490
v  1084.3998 26.8658 -258.0129
v  1084.3998 2.3413 -258.0129
v  1084.4556 26.8658 -248.6490
v  1084.4556 2.3413 -248.6490
v  1084.4556 26.8658 -258.0129
v  1084.4556 2.3413 -258.0129
v  1094.4745 26.5313 -259.2777
v  1094.4745 2.6755 -259.2777
v  1085.7795 2.6755 -259.2777
v  1085.7795 26.5313 -259.2777
v  1084.5533 27.7575 -258.9432
v  1084.5533 27.7575 -259.1662
v  1084.5533 1.4495 -259.1662
v  1084.5533 1.4495 -258.9432
v  1095.7008 27.7575 -258.9432
v  1095.7008 27.7575 -259.1662
v  1095.7008 1.4495 -258.9432
v  1095.7008 1.4495 -259.1662
v  1085.4451 26.8658 -259.2777
v  1085.4451 2.3413 -259.2777
v  1094.8090 26.8658 -259.2777
v  1094.8090 2.3413 -259.2777
v  1085.4451 26.8658 -259.2220
v  1085.4451 2.3413 -259.2220
v  1094.8090 26.8658 -259.2220
v  1094.8090 2.3413 -259.2220
# 80 vertices

vn -1.0000 0.0000 -0.0000
vn 0.0000 0.0000 1.0000
vn 0.0000 1.0000 -0.0000
vn 0.0000 0.0000 -1.0000
vn 0.0000 -1.0000 -0.0000
vn -0.9923 0.0000 0.1240
vn -0.9923 0.1240 -0.0000
vn -0.9923 0.0000 -0.1240
vn -0.9923 -0.1240 -0.0000
vn -0.9864 0.0000 0.1644
vn -0.9864 0.1644 -0.0000
vn -0.9864 0.0000 -0.1644
vn -0.9864 -0.1644 -0.0000
vn 1.0000 0.0000 -0.0000
vn -0.1240 0.0000 -0.9923
vn 0.0000 0.1240 -0.9923
vn 0.1240 0.0000 -0.9923
vn 0.0000 -0.1240 -0.9923
vn -0.1644 0.0000 -0.9864
vn 0.0000 0.1644 -0.9864
vn 0.1644 0.0000 -0.9864
vn 0.0000 -0.1644 -0.9864
# 22 vertex normals

vt 10.2500 -26.2500 0.8750
vt 10.2500 27.2500 0.8750
vt -9.2500 27.2500 0.8750
vt -9.2500 -26.2500 0.8750
vt 30.0000 0.1250 -12.0000
vt 30.0000 0.6250 -12.0000
vt -29.0000 0.6250 -12.0000
vt -29.0000 0.1250 -12.0000
vt 13.0000 0.1250 -29.0000
vt 13.0000 0.6250 -29.0000
vt -12.0000 0.6250 -29.0000
vt -12.0000 0.1250 -29.0000
vt 30.0000 0.1250 13.0000
vt 30.0000 0.6250 13.0000
vt -29.0000 0.6250 13.0000
vt -29.0000 0.1250 13.0000
vt 13.0000 0.1250 30.0000
vt 13.0000 0.6250 30.0000
vt -12.0000 0.6250 30.0000
vt -12.0000 0.1250 30.0000
vt -12.0000 -29.0000 0.6250
vt -10.0000 -27.0000 0.8750
vt -10.0000 28.0000 0.8750
vt -12.0000 30.0000 0.6250
vt 13.0000 -29.0000 0.6250
vt 11.0000 -27.0000 0.8750
vt 13.0000 30.0000 0.6250
vt 11.0000 28.0000 0.8750
vt -27.0000 0.8750 -10.0000
vt -27.0000 0.7500 -10.0000
vt 28.0000 0.7500 -10.0000
vt 28.0000 0.8750 -10.0000
vt -10.0000 0.8750 -27.0000
vt -10.0000 0.7500 -27.0000
vt 11.0000 0.7500 -27.0000
vt 11.0000 0.8750 -27.0000
vt -27.0000 0.8750 11.0000
vt -27.0000 0.7500 11.0000
vt 28.0000 0.7500 11.0000
vt 28.0000 0.8750 11.0000
vt -10.0000 0.8750 28.0000
vt -10.0000 0.7500 28.0000
vt 11.0000 0.7500 28.0000
vt 11.0000 0.8750 28.0000
vt -10.0000 -27.0000 0.7500
vt -10.0000 28.0000 0.7500
vt 11.0000 -27.0000 0.7500
vt 11.0000 28.0000 0.7500
vt 13.0000 30.0000 0.1250
vt -12.0000 30.0000 0.1250
vt -12.0000 -29.0000 0.1250
vt 13.0000 -29.0000 0.1250
# 52 texture coords

o vestidor
g vestidor
usemtl Material__231
s 1
f 1/1/1 2/2/1 3/3/1 
f 3/3/1 4/4/1 1/1/1 
usemtl White_Mat__wood_
s off
f 5/5/2 6/6/2 7/7/2 
f 7/7/2 8/8/2 5/5/2 
f 9/9/3 10/10/3 6/11/3 
f 6/11/3 5/12/3 9/9/3 
f 11/13/4 12/14/4 10/15/4 
f 10/15/4 9/16/4 11/13/4 
f 8/17/5 7/18/5 12/19/5 
f 12/19/5 11/20/5 8/17/5 
usemtl Material__307
f 6/21/6 13/22/6 14/23/6 
f 14/23/6 7/24/6 6/21/6 
f 10/25/7 15/26/7 13/22/7 
f 13/22/7 6/21/7 10/25/7 
f 12/27/8 16/28/8 15/26/8 
f 15/26/8 10/25/8 12/27/8 
f 7/24/9 14/23/9 16/28/9 
f 16/28/9 12/27/9 7/24/9 
usemtl White_Mat__wood_
f 13/29/4 17/30/4 18/31/4 
f 18/31/4 14/32/4 13/29/4 
f 15/33/5 19/34/5 17/35/5 
f 17/35/5 13/36/5 15/33/5 
f 16/37/2 20/38/2 19/39/2 
f 19/39/2 15/40/2 16/37/2 
f 14/41/3 18/42/3 20/43/3 
f 20/43/3 16/44/3 14/41/3 
usemtl Material__307
f 17/45/10 4/4/10 3/3/10 
f 3/3/10 18/46/10 17/45/10 
f 19/47/11 1/1/11 4/4/11 
f 4/4/11 17/45/11 19/47/11 
f 20/48/12 2/2/12 1/1/12 
f 1/1/12 19/47/12 20/48/12 
f 18/46/13 3/3/13 2/2/13 
f 2/2/13 20/48/13 18/46/13 
usemtl White_Mat__wood_
f 8/49/14 11/50/14 9/51/14 
f 9/51/14 5/52/14 8/49/14 
usemtl Material__231
s 1
f 21/1/1 22/2/1 23/3/1 
f 23/3/1 24/4/1 21/1/1 
usemtl White_Mat__wood_
s off
f 25/5/2 26/6/2 27/7/2 
f 27/7/2 28/8/2 25/5/2 
f 29/9/3 30/10/3 26/11/3 
f 26/11/3 25/12/3 29/9/3 
f 31/13/4 32/14/4 30/15/4 
f 30/15/4 29/16/4 31/13/4 
f 28/17/5 27/18/5 32/19/5 
f 32/19/5 31/20/5 28/17/5 
usemtl Material__307
f 26/21/6 33/22/6 34/23/6 
f 34/23/6 27/24/6 26/21/6 
f 30/25/7 35/26/7 33/22/7 
f 33/22/7 26/21/7 30/25/7 
f 32/27/8 36/28/8 35/26/8 
f 35/26/8 30/25/8 32/27/8 
f 27/24/9 34/23/9 36/28/9 
f 36/28/9 32/27/9 27/24/9 
usemtl White_Mat__wood_
f 33/29/4 37/30/4 38/31/4 
f 38/31/4 34/32/4 33/29/4 
f 35/33/5 39/34/5 37/35/5 
f 37/35/5 33/36/5 35/33/5 
f 36/37/2 40/38/2 39/39/2 
f 39/39/2 35/40/2 36/37/2 
f 34/41/3 38/42/3 40/43/3 
f 40/43/3 36/44/3 34/41/3 
usemtl Material__307
f 37/45/10 24/4/10 23/3/10 
f 23/3/10 38/46/10 37/45/10 
f 39/47/11 21/1/11 24/4/11 
f 24/4/11 37/45/11 39/47/11 
f 40/48/12 22/2/12 21/1/12 
f 21/1/12 39/47/12 40/48/12 
f 38/46/13 23/3/13 22/2/13 
f 22/2/13 40/48/13 38/46/13 
usemtl White_Mat__wood_
f 28/49/14 31/50/14 29/51/14 
f 29/51/14 25/52/14 28/49/14 
usemtl Material__231
s 1
f 41/1/1 42/2/1 43/3/1 
f 43/3/1 44/4/1 41/1/1 
usemtl White_Mat__wood_
s off
f 45/5/2 46/6/2 47/7/2 
f 47/7/2 48/8/2 45/5/2 
f 49/9/3 50/10/3 46/11/3 
f 46/11/3 45/12/3 49/9/3 
f 51/13/4 52/14/4 50/15/4 
f 50/15/4 49/16/4 51/13/4 
f 48/17/5 47/18/5 52/19/5 
f 52/19/5 51/20/5 48/17/5 
usemtl Material__307
f 46/21/6 53/22/6 54/23/6 
f 54/23/6 47/24/6 46/21/6 
f 50/25/7 55/26/7 53/22/7 
f 53/22/7 46/21/7 50/25/7 
f 52/27/8 56/28/8 55/26/8 
f 55/26/8 50/25/8 52/27/8 
f 47/24/9 54/23/9 56/28/9 
f 56/28/9 52/27/9 47/24/9 
usemtl White_Mat__wood_
f 53/29/4 57/30/4 58/31/4 
f 58/31/4 54/32/4 53/29/4 
f 55/33/5 59/34/5 57/35/5 
f 57/35/5 53/36/5 55/33/5 
f 56/37/2 60/38/2 59/39/2 
f 59/39/2 55/40/2 56/37/2 
f 54/41/3 58/42/3 60/43/3 
f 60/43/3 56/44/3 54/41/3 
usemtl Material__307
f 57/45/10 44/4/10 43/3/10 
f 43/3/10 58/46/10 57/45/10 
f 59/47/11 41/1/11 44/4/11 
f 44/4/11 57/45/11 59/47/11 
f 60/48/12 42/2/12 41/1/12 
f 41/1/12 59/47/12 60/48/12 
f 58/46/13 43/3/13 42/2/13 
f 42/2/13 60/48/13 58/46/13 
usemtl White_Mat__wood_
f 48/49/14 51/50/14 49/51/14 
f 49/51/14 45/52/14 48/49/14 
usemtl Material__231
s 1
f 61/1/4 62/2/4 63/3/4 
f 63/3/4 64/4/4 61/1/4 
usemtl White_Mat__wood_
s off
f 65/5/1 66/6/1 67/7/1 
f 67/7/1 68/8/1 65/5/1 
f 69/9/3 70/10/3 66/11/3 
f 66/11/3 65/12/3 69/9/3 
f 71/13/14 72/14/14 70/15/14 
f 70/15/14 69/16/14 71/13/14 
f 68/17/5 67/18/5 72/19/5 
f 72/19/5 71/20/5 68/17/5 
usemtl Material__307
f 66/21/15 73/22/15 74/23/15 
f 74/23/15 67/24/15 66/21/15 
f 70/25/16 75/26/16 73/22/16 
f 73/22/16 66/21/16 70/25/16 
f 72/27/17 76/28/17 75/26/17 
f 75/26/17 70/25/17 72/27/17 
f 67/24/18 74/23/18 76/28/18 
f 76/28/18 72/27/18 67/24/18 
usemtl White_Mat__wood_
f 73/29/14 77/30/14 78/31/14 
f 78/31/14 74/32/14 73/29/14 
f 75/33/5 79/34/5 77/35/5 
f 77/35/5 73/36/5 75/33/5 
f 76/37/1 80/38/1 79/39/1 
f 79/39/1 75/40/1 76/37/1 
f 74/41/3 78/42/3 80/43/3 
f 80/43/3 76/44/3 74/41/3 
usemtl Material__307
f 77/45/19 64/4/19 63/3/19 
f 63/3/19 78/46/19 77/45/19 
f 79/47/20 61/1/20 64/4/20 
f 64/4/20 77/45/20 79/47/20 
f 80/48/21 62/2/21 61/1/21 
f 61/1/21 79/47/21 80/48/21 
f 78/46/22 63/3/22 62/2/22 
f 62/2/22 80/48/22 78/46/22 
usemtl White_Mat__wood_
f 68/49/2 71/50/2 69/51/2 
f 69/51/2 65/52/2 68/49/2 
# 144 faces

