# 3ds Max Wavefront OBJ Exporter v0.99 - (c)2007 guruware
# File Created: 28.04.2024 01:10:14

mtllib ventanas.mtl

#
# object ventanas
#

v  893.4311 1.4082 -295.8006
v  893.4311 57.9582 -295.8006
v  939.6310 57.9582 -295.8006
v  939.6310 1.4082 -295.8006
v  893.4311 1.4082 -294.5506
v  939.6310 1.4082 -294.5506
v  939.6310 57.9582 -294.5506
v  893.4311 57.9582 -294.5506
v  979.7096 1.4082 -295.5421
v  979.7096 57.9582 -295.5421
v  1025.0996 57.9582 -295.5421
v  1025.0996 1.4082 -295.5421
v  979.7096 1.4082 -294.2921
v  1025.0996 1.4082 -294.2921
v  1025.0996 57.9582 -294.2921
v  979.7096 57.9582 -294.2921
v  1025.0957 1.4082 -294.2737
v  1025.0957 57.9582 -294.2737
v  1025.0957 57.9582 -224.1162
v  1025.0957 1.4082 -224.1162
v  1023.5957 1.4082 -294.2737
v  1023.5957 1.4082 -224.1162
v  1023.5957 57.9582 -224.1162
v  1023.5957 57.9582 -294.2737
# 24 vertices

vn 0.0000 0.0000 -1.0000
vn 0.0000 0.0000 1.0000
vn 0.0000 -1.0000 -0.0000
vn 1.0000 0.0000 -0.0000
vn 0.0000 1.0000 -0.0000
vn -1.0000 0.0000 -0.0000
# 6 vertex normals

vt 1.0000 0.0000 0.0000
vt 1.0000 1.0000 0.0000
vt 0.0000 1.0000 0.0000
vt 0.0000 0.0000 0.0000
# 4 texture coords

o ventanas
g ventanas
usemtl Material__37
s 2
f 1/1/1 2/2/1 3/3/1 
f 3/3/1 4/4/1 1/1/1 
s 4
f 5/4/2 6/1/2 7/2/2 
f 7/2/2 8/3/2 5/4/2 
s 8
f 1/4/3 4/1/3 6/2/3 
f 6/2/3 5/3/3 1/4/3 
s 16
f 4/4/4 3/1/4 7/2/4 
f 7/2/4 6/3/4 4/4/4 
s 32
f 3/4/5 2/1/5 8/2/5 
f 8/2/5 7/3/5 3/4/5 
s 64
f 2/4/6 1/1/6 5/2/6 
f 5/2/6 8/3/6 2/4/6 
s 2
f 9/1/1 10/2/1 11/3/1 
f 11/3/1 12/4/1 9/1/1 
s 4
f 13/4/2 14/1/2 15/2/2 
f 15/2/2 16/3/2 13/4/2 
s 8
f 9/4/3 12/1/3 14/2/3 
f 14/2/3 13/3/3 9/4/3 
s 16
f 12/4/4 11/1/4 15/2/4 
f 15/2/4 14/3/4 12/4/4 
s 32
f 11/4/5 10/1/5 16/2/5 
f 16/2/5 15/3/5 11/4/5 
s 64
f 10/4/6 9/1/6 13/2/6 
f 13/2/6 16/3/6 10/4/6 
s 2
f 17/1/4 18/2/4 19/3/4 
f 19/3/4 20/4/4 17/1/4 
s 4
f 21/4/6 22/1/6 23/2/6 
f 23/2/6 24/3/6 21/4/6 
s 8
f 17/4/3 20/1/3 22/2/3 
f 22/2/3 21/3/3 17/4/3 
s 16
f 20/4/2 19/1/2 23/2/2 
f 23/2/2 22/3/2 20/4/2 
s 32
f 19/4/5 18/1/5 24/2/5 
f 24/2/5 23/3/5 19/4/5 
s 64
f 18/4/1 17/1/1 21/2/1 
f 21/2/1 24/3/1 18/4/1 
# 36 faces

