# 3ds Max Wavefront OBJ Exporter v0.99 - (c)2007 guruware
# File Created: 29.04.2024 23:29:02

mtllib banca6.mtl

#
# object banca006
#

v  699.4333 0.6406 -90.0886
v  714.8447 17.1760 -90.1168
v  714.8447 0.6406 -90.1168
v  699.4332 17.1760 -90.0886
v  714.8268 0.6406 -86.2317
v  714.8268 17.1760 -86.2317
v  699.4153 17.1760 -86.2030
v  699.4153 0.6406 -86.2030
v  699.3559 17.1760 -143.8552
v  699.3762 0.6406 -156.2131
v  699.3559 0.6406 -143.8552
v  699.3762 17.1760 -156.2131
v  714.7877 17.1760 -156.2417
v  714.7751 17.1760 -143.8255
v  714.7751 0.6406 -143.8255
v  714.7877 0.6406 -156.2417
v  714.1345 17.1760 -143.7736
v  707.2436 17.1760 -90.2019
v  714.1317 17.1760 -90.1705
v  707.1964 17.1760 -143.7393
v  714.1317 15.7980 -90.1705
v  714.1345 15.7980 -143.7736
v  707.1964 15.7980 -143.7393
v  707.2436 15.7980 -90.2019
v  700.0202 15.7980 -143.7817
v  706.9112 15.7980 -90.2100
v  700.0230 15.7980 -90.1785
v  706.9584 15.7980 -143.7474
v  700.0230 17.1760 -90.1785
v  700.0202 17.1760 -143.7817
v  706.9584 17.1760 -143.7474
v  706.9112 17.1760 -90.2100
# 32 vertices

vn -0.0018 0.0000 -1.0000
vn 1.0000 0.0000 0.0046
vn -1.0000 0.0000 -0.0046
vn 0.0000 -1.0000 -0.0000
vn 0.0019 0.0000 1.0000
vn 0.0000 1.0000 -0.0000
vn -1.0000 0.0000 -0.0016
vn 1.0000 0.0000 0.0010
vn -0.0019 0.0000 -1.0000
vn -0.0019 0.0000 1.0000
vn 1.0000 0.0000 0.0001
vn -1.0000 0.0000 0.0009
vn -0.0046 0.0000 1.0000
vn -0.0050 0.0000 -1.0000
vn -1.0000 0.0000 0.0001
vn 1.0000 0.0000 0.0009
vn 0.0046 0.0000 1.0000
vn 0.0050 0.0000 -1.0000
# 18 vertex normals

vt 0.5590 0.0000 0.0000
vt -0.0003 0.6000 0.0000
vt -0.0003 0.0000 0.0000
vt 0.5590 0.6000 0.0000
vt 0.1420 0.6000 0.0000
vt 0.0010 0.0000 0.0000
vt 0.1420 0.0000 0.0000
vt 0.0010 0.6000 0.0000
vt 0.0026 0.6000 0.0000
vt -0.1384 0.0000 0.0000
vt 0.0026 0.0000 0.0000
vt -0.1384 0.6000 0.0000
vt -0.1410 0.5592 0.0000
vt -0.0010 0.0007 0.0000
vt 0.0000 0.5599 0.0000
vt -0.1420 0.0000 0.0000
vt -0.5599 0.6000 0.0000
vt -0.0006 0.0000 0.0000
vt -0.0006 0.6000 0.0000
vt -0.5599 0.0000 0.0000
vt 0.0010 0.0007 0.0000
vt 0.1410 0.5592 0.0000
vt -0.0002 0.6000 0.0000
vt -0.4486 0.0000 0.0000
vt -0.0002 0.0000 0.0000
vt -0.4486 0.6000 0.0000
vt 0.4505 0.0000 0.0000
vt 0.0011 0.5600 0.0000
vt 0.0000 0.0005 0.0000
vt 0.4495 0.5592 0.0000
vt 0.4505 0.6000 0.0000
vt -0.0000 0.0000 0.0000
vt -0.0000 0.6000 0.0000
vt 0.5584 0.0000 0.0000
vt -0.0008 0.6000 0.0000
vt -0.0008 0.0000 0.0000
vt 0.5584 0.6000 0.0000
vt -0.5600 0.6000 0.0000
vt -0.0005 0.0000 0.0000
vt -0.0005 0.6000 0.0000
vt -0.5600 0.0000 0.0000
vt -0.0011 0.5600 0.0000
vt -0.4505 0.0000 0.0000
vt -0.4495 0.5592 0.0000
vt -0.0108 0.3276 0.0000
vt -0.0498 0.0240 0.0000
vt -0.0108 0.0238 0.0000
vt -0.0501 0.3274 0.0000
vt 0.3711 -1.5403 0.0000
vt 0.3345 -0.1137 0.0000
vt 0.3345 -1.5403 0.0000
vt 0.3711 -0.1137 0.0000
vt -0.1722 0.6000 0.0000
vt -2.1148 0.5500 0.0000
vt -0.1722 0.5500 0.0000
vt -2.1148 0.6000 0.0000
vt -0.2081 0.6000 0.0000
vt -0.4580 0.5500 0.0000
vt -0.2081 0.5500 0.0000
vt -0.4580 0.6000 0.0000
vt 0.1142 1.0951 0.0000
vt 0.1466 0.8430 0.0000
vt 0.1466 1.0952 0.0000
vt 0.1140 0.8431 0.0000
vt 0.4485 0.5500 0.0000
vt 0.1967 0.6000 0.0000
vt 0.1967 0.5500 0.0000
vt 0.4485 0.6000 0.0000
# 68 texture coords

o banca006
g banca006
usemtl Material__25
s off
f 1/1/1 2/2/1 3/3/1 
f 2/2/1 1/1/1 4/4/1 
f 2/5/2 5/6/2 3/7/2 
f 5/6/2 2/5/2 6/8/2 
f 7/9/3 1/10/3 8/11/3 
f 1/10/3 7/9/3 4/12/3 
f 1/13/4 5/14/4 8/15/4 
f 5/14/4 1/13/4 3/16/4 
f 7/17/5 5/18/5 6/19/5 
f 5/18/5 7/17/5 8/20/5 
f 6/21/6 4/22/6 7/15/6 
f 4/22/6 6/21/6 2/7/6 
f 9/23/7 10/24/7 11/25/7 
f 10/24/7 9/23/7 12/26/7 
f 13/27/6 9/28/6 14/29/6 
f 9/28/6 13/27/6 12/30/6 
f 13/31/8 15/32/8 16/27/8 
f 15/32/8 13/31/8 14/33/8 
f 10/34/9 13/35/9 16/36/9 
f 13/35/9 10/34/9 12/37/9 
f 9/38/10 15/39/10 14/40/10 
f 15/39/10 9/38/10 11/41/10 
f 11/42/4 16/43/4 15/29/4 
f 16/43/4 11/42/4 10/44/4 
usemtl Material__26
f 17/45/6 18/46/6 19/47/6 
f 18/46/6 17/45/6 20/48/6 
f 17/49/11 21/50/11 22/51/11 
f 21/50/11 17/49/11 19/52/11 
f 18/53/12 23/54/12 24/55/12 
f 23/54/12 18/53/12 20/56/12 
f 19/57/13 24/58/13 21/59/13 
f 24/58/13 19/57/13 18/60/13 
f 24/61/4 22/62/4 21/63/4 
f 22/62/4 24/61/4 23/64/4 
f 23/65/14 17/66/14 22/67/14 
f 17/66/14 23/65/14 20/68/14 
f 25/45/4 26/46/4 27/47/4 
f 26/46/4 25/45/4 28/48/4 
f 25/49/15 29/50/15 30/51/15 
f 29/50/15 25/49/15 27/52/15 
f 26/53/16 31/54/16 32/55/16 
f 31/54/16 26/53/16 28/56/16 
f 27/57/17 32/58/17 29/59/17 
f 32/58/17 27/57/17 26/60/17 
f 32/61/6 30/62/6 29/63/6 
f 30/62/6 32/61/6 31/64/6 
f 31/65/18 25/66/18 30/67/18 
f 25/66/18 31/65/18 28/68/18 
# 48 faces

