# 3ds Max Wavefront OBJ Exporter v0.99 - (c)2007 guruware
# File Created: 25.04.2024 19:40:51

mtllib paredes.mtl

#
# object Box008
#

v  -232.3625 0.0000 -369.8587
v  -231.6625 0.0000 -369.8587
v  -231.6625 0.0000 99.6413
v  -232.3625 0.0000 99.6413
v  -232.3625 140.0000 -369.8587
v  -232.3625 140.0000 99.6413
v  -231.6625 140.0000 99.6413
v  -231.6625 140.0000 -369.8587
# 8 vertices

vn 0.0000 -1.0000 -0.0000
vn 0.0000 1.0000 -0.0000
vn -1.0000 0.0000 -0.0000
vn -0.0000 0.0000 1.0000
vn 1.0000 0.0000 0.0000
vn 0.0000 0.0000 -1.0000
# 6 vertex normals

vt 1.0000 0.0000 0.0000
vt 1.0000 1.0000 0.0000
vt 0.0000 1.0000 0.0000
vt 0.0000 0.0000 0.0000
# 4 texture coords

o Box008
g Box008
usemtl wire_153228153
s 2
f 1/1/1 2/2/1 3/3/1 
f 3/3/1 4/4/1 1/1/1 
s 4
f 5/4/2 6/1/2 7/2/2 
f 7/2/2 8/3/2 5/4/2 
usemtl Material__411
s 8
f 1/4/3 4/1/3 6/2/3 
f 6/2/3 5/3/3 1/4/3 
usemtl wire_153228153
s 16
f 4/4/4 3/1/4 7/2/4 
f 7/2/4 6/3/4 4/4/4 
usemtl Material__556
s 32
f 3/4/5 2/1/5 8/2/5 
f 8/2/5 7/3/5 3/4/5 
usemtl wire_153228153
s 64
f 2/4/6 1/1/6 5/2/6 
f 5/2/6 8/3/6 2/4/6 
# 12 faces

#
# object Box010
#

v  97.3911 0.0000 -607.5294
v  98.0911 0.0000 -607.5294
v  98.0911 0.0000 -370.0294
v  97.3911 0.0000 -370.0294
v  97.3911 63.6936 -607.5294
v  97.3911 63.6936 -370.0294
v  98.0911 63.6936 -370.0294
v  98.0911 63.6936 -607.5294
# 8 vertices

vn 0.0000 -1.0000 -0.0000
vn 0.0000 1.0000 -0.0000
vn -1.0000 0.0000 -0.0000
vn -0.0000 0.0000 1.0000
vn 1.0000 0.0000 0.0000
vn 0.0000 0.0000 -1.0000
# 6 vertex normals

vt 1.0000 0.0000 0.0000
vt 1.0000 1.0000 0.0000
vt 0.0000 1.0000 0.0000
vt 0.0000 0.0000 0.0000
# 4 texture coords

o Box010
g Box010
usemtl wire_153228153
s 2
f 9/5/7 10/6/7 11/7/7 
f 11/7/7 12/8/7 9/5/7 
s 4
f 13/8/8 14/5/8 15/6/8 
f 15/6/8 16/7/8 13/8/8 
usemtl Material__556
s 8
f 9/8/9 12/5/9 14/6/9 
f 14/6/9 13/7/9 9/8/9 
usemtl wire_153228153
s 16
f 12/8/10 11/5/10 15/6/10 
f 15/6/10 14/7/10 12/8/10 
usemtl Material__344
s 32
f 11/8/11 10/5/11 16/6/11 
f 16/6/11 15/7/11 11/8/11 
usemtl wire_153228153
s 64
f 10/8/12 9/5/12 13/6/12 
f 13/6/12 16/7/12 10/8/12 
# 12 faces

#
# object Box011
#

v  -232.1780 63.6850 -606.8438
v  -142.1780 63.6850 -606.8438
v  -142.1780 63.6850 -607.5438
v  -232.1780 63.6850 -607.5438
v  -232.1780 -0.0086 -606.8438
v  -232.1780 -0.0086 -607.5438
v  -142.1780 -0.0086 -607.5438
v  -142.1780 -0.0086 -606.8438
# 8 vertices

vn 0.0000 1.0000 -0.0000
vn 0.0000 -1.0000 -0.0000
vn 0.0000 0.0000 1.0000
vn 1.0000 0.0000 -0.0000
vn -0.0000 0.0000 -1.0000
vn -1.0000 0.0000 0.0000
# 6 vertex normals

vt 1.0000 0.0000 0.0000
vt 0.0000 0.0000 0.0000
vt 0.0000 1.0000 0.0000
vt 1.0000 1.0000 0.0000
# 4 texture coords

o Box011
g Box011
usemtl wire_153228153
s 2
f 17/9/13 18/10/13 19/11/13 
f 19/11/13 20/12/13 17/9/13 
s 4
f 21/10/14 22/11/14 23/12/14 
f 23/12/14 24/9/14 21/10/14 
usemtl Material__556
s 8
f 17/10/15 21/11/15 24/12/15 
f 24/12/15 18/9/15 17/10/15 
usemtl wire_153228153
s 16
f 18/10/16 24/11/16 23/12/16 
f 23/12/16 19/9/16 18/10/16 
usemtl Material__344
s 32
f 19/10/17 23/11/17 22/12/17 
f 22/12/17 20/9/17 19/10/17 
usemtl wire_153228153
s 64
f 20/10/18 22/11/18 21/12/18 
f 21/12/18 17/9/18 20/10/18 
# 12 faces

#
# object Box013
#

v  -232.3511 0.0000 100.3500
v  -232.3511 0.0000 99.6500
v  98.1006 0.0000 99.6500
v  98.1006 0.0000 100.3500
v  -232.3511 140.0000 100.3500
v  98.1006 140.0000 100.3500
v  98.1006 140.0000 99.6500
v  -232.3511 140.0000 99.6500
# 8 vertices

vn 0.0000 -1.0000 -0.0000
vn 0.0000 1.0000 -0.0000
vn 0.0000 0.0000 1.0000
vn 1.0000 0.0000 -0.0000
vn -0.0000 0.0000 -1.0000
vn -1.0000 0.0000 0.0000
# 6 vertex normals

vt 1.0000 0.0000 0.0000
vt 1.0000 1.0000 0.0000
vt 0.0000 1.0000 0.0000
vt 0.0000 0.0000 0.0000
# 4 texture coords

o Box013
g Box013
usemtl wire_153228153
s 2
f 25/13/19 26/14/19 27/15/19 
f 27/15/19 28/16/19 25/13/19 
s 4
f 29/16/20 30/13/20 31/14/20 
f 31/14/20 32/15/20 29/16/20 
usemtl Material__411
s 8
f 25/16/21 28/13/21 30/14/21 
f 30/14/21 29/15/21 25/16/21 
usemtl wire_153228153
s 16
f 28/16/22 27/13/22 31/14/22 
f 31/14/22 30/15/22 28/16/22 
usemtl Material__556
s 32
f 27/16/23 26/13/23 32/14/23 
f 32/14/23 31/15/23 27/16/23 
usemtl wire_153228153
s 64
f 26/16/24 25/13/24 29/14/24 
f 29/14/24 32/15/24 26/16/24 
# 12 faces

#
# object Box014
#

v  -232.3511 94.5277 -607.5438
v  -232.3511 94.5277 -606.8438
v  98.1006 94.5277 -607.5438
v  98.1006 94.5277 -606.8438
v  98.1006 63.6369 -606.8438
v  -232.3511 63.6369 -606.8438
v  98.1006 63.6369 -607.5438
v  -232.3511 63.6369 -607.5438
# 8 vertices

vn 0.0000 1.0000 -0.0000
vn 0.0000 -1.0000 -0.0000
vn 0.0000 0.0000 1.0000
vn 1.0000 0.0000 -0.0000
vn -0.0000 0.0000 -1.0000
vn -1.0000 0.0000 0.0000
# 6 vertex normals

vt 0.0000 1.0000 0.0000
vt 0.0000 0.0000 0.0000
vt 1.0000 1.0000 0.0000
vt 1.0000 0.0000 0.0000
# 4 texture coords

o Box014
g Box014
usemtl Material__533
s 2
f 33/17/25 34/18/25 35/19/25 
f 36/20/25 35/19/25 34/18/25 
s 4
f 37/18/26 38/20/26 39/17/26 
f 40/19/26 39/17/26 38/20/26 
s 8
f 36/20/27 34/18/27 37/19/27 
f 38/17/27 37/19/27 34/18/27 
s 16
f 35/20/28 36/18/28 39/19/28 
f 37/17/28 39/19/28 36/18/28 
s 32
f 33/20/29 35/18/29 40/19/29 
f 39/17/29 40/19/29 35/18/29 
s 64
f 34/20/30 33/18/30 38/19/30 
f 40/17/30 38/19/30 33/18/30 
# 12 faces

#
# object Box015
#

v  97.5012 0.0000 -369.7952
v  97.5012 0.0000 -370.4952
v  1097.5012 0.0000 -370.4952
v  1097.5012 0.0000 -369.7952
v  97.5012 140.0000 -369.7952
v  1097.5012 140.0000 -369.7952
v  1097.5012 140.0000 -370.4952
v  97.5012 140.0000 -370.4952
# 8 vertices

vn 0.0000 -1.0000 -0.0000
vn 0.0000 1.0000 -0.0000
vn 0.0000 0.0000 1.0000
vn 1.0000 0.0000 -0.0000
vn 0.0000 0.0000 -1.0000
vn -1.0000 0.0000 -0.0000
# 6 vertex normals

vt 1.0000 0.0000 0.0000
vt 1.0000 1.0000 0.0000
vt 0.0000 1.0000 0.0000
vt 0.0000 0.0000 0.0000
# 4 texture coords

o Box015
g Box015
usemtl wire_153228153
s 2
f 41/21/31 42/22/31 43/23/31 
f 43/23/31 44/24/31 41/21/31 
s 4
f 45/24/32 46/21/32 47/22/32 
f 47/22/32 48/23/32 45/24/32 
usemtl Material__556
s 8
f 41/24/33 44/21/33 46/22/33 
f 46/22/33 45/23/33 41/24/33 
usemtl wire_153228153
s 16
f 44/24/34 43/21/34 47/22/34 
f 47/22/34 46/23/34 44/24/34 
usemtl Material__411
s 32
f 43/24/35 42/21/35 48/22/35 
f 48/22/35 47/23/35 43/24/35 
usemtl wire_153228153
s 64
f 42/24/36 41/21/36 45/22/36 
f 45/22/36 48/23/36 42/24/36 
# 12 faces

#
# object Box016
#

v  97.5012 0.0000 100.3500
v  97.5012 0.0000 99.6500
v  1097.5012 0.0000 99.6500
v  1097.5012 0.0000 100.3500
v  97.5012 140.0000 100.3500
v  1097.5012 140.0000 100.3500
v  1097.5012 140.0000 99.6500
v  97.5012 140.0000 99.6500
# 8 vertices

vn 0.0000 -1.0000 -0.0000
vn 0.0000 1.0000 -0.0000
vn 0.0000 0.0000 1.0000
vn 1.0000 0.0000 -0.0000
vn 0.0000 0.0000 -1.0000
vn -1.0000 0.0000 -0.0000
# 6 vertex normals

vt 1.0000 0.0000 0.0000
vt 1.0000 1.0000 0.0000
vt 0.0000 1.0000 0.0000
vt 0.0000 0.0000 0.0000
# 4 texture coords

o Box016
g Box016
usemtl wire_153228153
s 2
f 49/25/37 50/26/37 51/27/37 
f 51/27/37 52/28/37 49/25/37 
s 4
f 53/28/38 54/25/38 55/26/38 
f 55/26/38 56/27/38 53/28/38 
usemtl Material__411
s 8
f 49/28/39 52/25/39 54/26/39 
f 54/26/39 53/27/39 49/28/39 
usemtl wire_153228153
s 16
f 52/28/40 51/25/40 55/26/40 
f 55/26/40 54/27/40 52/28/40 
usemtl Material__556
s 32
f 51/28/41 50/25/41 56/26/41 
f 56/26/41 55/27/41 51/28/41 
usemtl wire_153228153
s 64
f 50/28/42 49/25/42 53/26/42 
f 53/26/42 56/27/42 50/28/42 
# 12 faces

#
# object Box023
#

v  -232.3625 0.0000 -607.5294
v  -231.6625 0.0000 -607.5294
v  -231.6625 0.0000 -370.0294
v  -232.3625 0.0000 -370.0294
v  -232.3625 63.6936 -607.5294
v  -232.3625 63.6936 -370.0294
v  -231.6625 63.6936 -370.0294
v  -231.6625 63.6936 -607.5294
# 8 vertices

vn 0.0000 -1.0000 -0.0000
vn 0.0000 1.0000 -0.0000
vn -1.0000 0.0000 -0.0000
vn -0.0000 0.0000 1.0000
vn 1.0000 0.0000 0.0000
vn 0.0000 0.0000 -1.0000
# 6 vertex normals

vt 1.0000 0.0000 0.0000
vt 1.0000 1.0000 0.0000
vt 0.0000 1.0000 0.0000
vt 0.0000 0.0000 0.0000
# 4 texture coords

o Box023
g Box023
usemtl wire_153228153
s 2
f 57/29/43 58/30/43 59/31/43 
f 59/31/43 60/32/43 57/29/43 
s 4
f 61/32/44 62/29/44 63/30/44 
f 63/30/44 64/31/44 61/32/44 
usemtl Material__344
s 8
f 57/32/45 60/29/45 62/30/45 
f 62/30/45 61/31/45 57/32/45 
usemtl wire_153228153
s 16
f 60/32/46 59/29/46 63/30/46 
f 63/30/46 62/31/46 60/32/46 
usemtl Material__556
s 32
f 59/32/47 58/29/47 64/30/47 
f 64/30/47 63/31/47 59/32/47 
usemtl wire_153228153
s 64
f 58/32/48 57/29/48 61/30/48 
f 61/30/48 64/31/48 58/32/48 
# 12 faces

#
# object Box024
#

v  -232.2482 63.6123 -369.7952
v  -232.2482 63.6123 -370.4952
v  98.2034 63.6123 -370.4952
v  98.2034 63.6123 -369.7952
v  -232.2482 139.9160 -369.7952
v  98.2034 139.9160 -369.7952
v  98.2034 139.9160 -370.4952
v  -232.2482 139.9160 -370.4952
# 8 vertices

vn 0.0000 -1.0000 -0.0000
vn 0.0000 1.0000 -0.0000
vn 0.0000 0.0000 1.0000
vn 1.0000 0.0000 -0.0000
vn 0.0000 0.0000 -1.0000
vn -1.0000 0.0000 -0.0000
# 6 vertex normals

vt 1.0000 0.0000 0.0000
vt 1.0000 1.0000 0.0000
vt 0.0000 1.0000 0.0000
vt 0.0000 0.0000 0.0000
# 4 texture coords

o Box024
g Box024
usemtl wire_153228153
s 2
f 65/33/49 66/34/49 67/35/49 
f 67/35/49 68/36/49 65/33/49 
s 4
f 69/36/50 70/33/50 71/34/50 
f 71/34/50 72/35/50 69/36/50 
usemtl Material__556
s 8
f 65/36/51 68/33/51 70/34/51 
f 70/34/51 69/35/51 65/36/51 
usemtl wire_153228153
s 16
f 68/36/52 67/33/52 71/34/52 
f 71/34/52 70/35/52 68/36/52 
usemtl Material__411
s 32
f 67/36/53 66/33/53 72/34/53 
f 72/34/53 71/35/53 67/36/53 
usemtl wire_153228153
s 64
f 66/36/54 65/33/54 69/34/54 
f 69/34/54 72/35/54 66/36/54 
# 12 faces

#
# object Box026
#

v  7.7819 63.6850 -606.8438
v  97.7819 63.6850 -606.8438
v  97.7819 63.6850 -607.5438
v  7.7819 63.6850 -607.5438
v  7.7819 -0.0086 -606.8438
v  7.7819 -0.0086 -607.5438
v  97.7819 -0.0086 -607.5438
v  97.7819 -0.0086 -606.8438
# 8 vertices

vn 0.0000 1.0000 -0.0000
vn 0.0000 -1.0000 -0.0000
vn 0.0000 0.0000 1.0000
vn 1.0000 0.0000 -0.0000
vn -0.0000 0.0000 -1.0000
vn -1.0000 0.0000 0.0000
# 6 vertex normals

vt 1.0000 0.0000 0.0000
vt 0.0000 0.0000 0.0000
vt 0.0000 1.0000 0.0000
vt 1.0000 1.0000 0.0000
# 4 texture coords

o Box026
g Box026
usemtl wire_153228153
s 2
f 73/37/55 74/38/55 75/39/55 
f 75/39/55 76/40/55 73/37/55 
s 4
f 77/38/56 78/39/56 79/40/56 
f 79/40/56 80/37/56 77/38/56 
usemtl Material__556
s 8
f 73/38/57 77/39/57 80/40/57 
f 80/40/57 74/37/57 73/38/57 
usemtl wire_153228153
s 16
f 74/38/58 80/39/58 79/40/58 
f 79/40/58 75/37/58 74/38/58 
usemtl Material__344
s 32
f 75/38/59 79/39/59 78/40/59 
f 78/40/59 76/37/59 75/38/59 
usemtl wire_153228153
s 64
f 76/38/60 78/39/60 77/40/60 
f 77/40/60 73/37/60 76/38/60 
# 12 faces

#
# object Box031
#

v  1097.5000 63.6850 10.1399
v  1097.5000 63.6850 100.1399
v  1098.2001 63.6850 100.1399
v  1098.2001 63.6850 10.1399
v  1097.5000 -0.0086 10.1399
v  1098.2001 -0.0086 10.1399
v  1098.2001 -0.0086 100.1399
v  1097.5000 -0.0086 100.1399
# 8 vertices

vn 0.0000 1.0000 -0.0000
vn 0.0000 -1.0000 -0.0000
vn -1.0000 0.0000 0.0000
vn 0.0000 0.0000 1.0000
vn 1.0000 0.0000 -0.0000
vn -0.0000 0.0000 -1.0000
# 6 vertex normals

vt 1.0000 0.0000 0.0000
vt 0.0000 0.0000 0.0000
vt 0.0000 1.0000 0.0000
vt 1.0000 1.0000 0.0000
# 4 texture coords

o Box031
g Box031
usemtl wire_153228153
s 2
f 81/41/61 82/42/61 83/43/61 
f 83/43/61 84/44/61 81/41/61 
s 4
f 85/42/62 86/43/62 87/44/62 
f 87/44/62 88/41/62 85/42/62 
usemtl Material__556
s 8
f 81/42/63 85/43/63 88/44/63 
f 88/44/63 82/41/63 81/42/63 
usemtl wire_153228153
s 16
f 82/42/64 88/43/64 87/44/64 
f 87/44/64 83/41/64 82/42/64 
usemtl Material__344
s 32
f 83/42/65 87/43/65 86/44/65 
f 86/44/65 84/41/65 83/42/65 
usemtl wire_153228153
s 64
f 84/42/66 86/43/66 85/44/66 
f 85/44/66 81/41/66 84/42/66 
# 12 faces

#
# object Box032
#

v  1097.5000 63.6850 -370.3151
v  1097.5000 63.6850 -280.3151
v  1098.2001 63.6850 -280.3151
v  1098.2001 63.6850 -370.3151
v  1097.5000 -0.0086 -370.3151
v  1098.2001 -0.0086 -370.3151
v  1098.2001 -0.0086 -280.3151
v  1097.5000 -0.0086 -280.3151
# 8 vertices

vn 0.0000 1.0000 -0.0000
vn 0.0000 -1.0000 -0.0000
vn -1.0000 0.0000 0.0000
vn 0.0000 0.0000 1.0000
vn 1.0000 0.0000 -0.0000
vn -0.0000 0.0000 -1.0000
# 6 vertex normals

vt 1.0000 0.0000 0.0000
vt 0.0000 0.0000 0.0000
vt 0.0000 1.0000 0.0000
vt 1.0000 1.0000 0.0000
# 4 texture coords

o Box032
g Box032
usemtl wire_153228153
s 2
f 89/45/67 90/46/67 91/47/67 
f 91/47/67 92/48/67 89/45/67 
s 4
f 93/46/68 94/47/68 95/48/68 
f 95/48/68 96/45/68 93/46/68 
usemtl Material__556
s 8
f 89/46/69 93/47/69 96/48/69 
f 96/48/69 90/45/69 89/46/69 
usemtl wire_153228153
s 16
f 90/46/70 96/47/70 95/48/70 
f 95/48/70 91/45/70 90/46/70 
usemtl Material__344
s 32
f 91/46/71 95/47/71 94/48/71 
f 94/48/71 92/45/71 91/46/71 
usemtl wire_153228153
s 64
f 92/46/72 94/47/72 93/48/72 
f 93/48/72 89/45/72 92/46/72 
# 12 faces

#
# object Box040
#

v  1096.7960 63.7020 99.7057
v  1096.7960 63.7020 -369.7943
v  1097.4960 63.7020 -369.7943
v  1097.4960 63.7020 99.7057
v  1096.7960 140.0057 99.7057
v  1097.4960 140.0057 99.7057
v  1097.4960 140.0057 -369.7943
v  1096.7960 140.0057 -369.7943
# 8 vertices

vn 0.0000 -1.0000 -0.0000
vn 0.0000 1.0000 -0.0000
vn 0.0000 0.0000 1.0000
vn 1.0000 0.0000 -0.0000
vn 0.0000 0.0000 -1.0000
vn -1.0000 0.0000 -0.0000
# 6 vertex normals

vt 1.0000 0.0000 0.0000
vt 1.0000 1.0000 0.0000
vt 0.0000 1.0000 0.0000
vt 0.0000 0.0000 0.0000
# 4 texture coords

o Box040
g Box040
usemtl Material__556
s 2
f 97/49/73 98/50/73 99/51/73 
f 99/51/73 100/52/73 97/49/73 
s 4
f 101/52/74 102/49/74 103/50/74 
f 103/50/74 104/51/74 101/52/74 
s 8
f 97/52/75 100/49/75 102/50/75 
f 102/50/75 101/51/75 97/52/75 
s 16
f 100/52/76 99/49/76 103/50/76 
f 103/50/76 102/51/76 100/52/76 
s 32
f 99/52/77 98/49/77 104/50/77 
f 104/50/77 103/51/77 99/52/77 
s 64
f 98/52/78 97/49/78 101/50/78 
f 101/50/78 104/51/78 98/52/78 
# 12 faces

